<svg id="Capa_1" data-name="Capa 1" xmlns="http://www.w3.org/2000/svg" viewBox="0 0 672 220"><g style="opacity:0.99"><rect width="672" height="220" style="fill:#fff"/><path d="M628,91.52,590.68,60.19c-2.21-.83-2.21-.83-4.37,0L548.94,91.52h0l-.11,43.79L628,137.39V91.57" transform="translate(-0.5)" style="fill:#c48a18"/><polygon points="627.45 91.52 627.5 91.57 627.5 91.52 627.45 91.52" style="fill:#fff"/><polygon points="555.97 59.44 555.97 140.17 619.97 140.17 619.97 72.7 605.91 59.44 555.97 59.44" style="fill:#f0f1f1"/><polygon points="619.97 72.7 605.91 59.44 605.91 72.7 619.97 72.7" style="fill:#d0d2d3"/><polygon points="627.5 150.22 627.5 91.57 595.9 121.38 627.5 150.22" style="fill:#e8af2e"/><polygon points="548.44 91.52 548.32 91.52 548.32 150.22 580.05 121.35 548.44 91.52" style="fill:#e8af2e"/><polyline points="587.03 113 547.5 150.32 626.68 150.32" style="fill:#d39b2a"/><ellipse cx="586.15" cy="171.11" rx="26.12" ry="1.45" style="fill:#303030;opacity:0.19"/></g><g id="レイヤー_1" data-name="レイヤー 1"><ellipse cx="65.65" cy="186.42" rx="26.19" ry="1.45" style="fill:#303030;opacity:0.15"/><polygon points="98.08 82.83 95.88 99.71 93.13 86.69 98.08 82.83" style="fill:#b77c40;opacity:0.9"/><polygon points="33.68 83.19 35.88 100.06 38.63 87.05 33.68 83.19" style="fill:#b77c40;opacity:0.9"/><path d="M86.16,116.55H46.48a8.82,8.82,0,0,1-8.82-8.83A66.07,66.07,0,0,1,36.46,98a67.08,67.08,0,0,1,1.2-16.26,9,9,0,0,1,2.58-6.24A8.78,8.78,0,0,1,46.48,73H86.16A8.82,8.82,0,0,1,95,81.78,67.08,67.08,0,0,1,96.18,98a66.07,66.07,0,0,1-1.2,9.68C95,108.31,94.93,111.44,86.16,116.55Z" transform="translate(-0.5)" style="fill:#ffebd4;opacity:0.9"/><path d="M116.26,114.7a10.06,10.06,0,0,1-4.25,4.83c-3.93,2.16-9.61,1.21-14.64-2.57v-5.58a3.19,3.19,0,0,0-3.19-3.19H38.46a3.19,3.19,0,0,0-3.19,3.19v.1a32.76,32.76,0,0,0-8,12.56c-.81,2.51-2.19,6.82-.49,11.54,1.81,5,6,7.9,8.46,9.25v9.81a3.19,3.19,0,0,0,3.19,3.19H94.18a3.19,3.19,0,0,0,3.19-3.19v-30a27.26,27.26,0,0,0,3.9,1.62c2.52.81,6.83,2.19,11.55.49,5.71-2.06,8.64-7.18,9.71-9.35ZM34.05,134.78c-3.33-4.81-1.26-10.16,1.22-14v15.44A12.26,12.26,0,0,1,34.05,134.78Z" transform="translate(-0.5)" style="fill:#474750;opacity:0.9"/><path d="M35.6,136.52c.64.52,1.34,1,2.08,1.59s1.35.95,2,1.37c-.62,2-1.25,4-1.87,6a19.68,19.68,0,0,1-2.54-.85,4.36,4.36,0,0,1-1.46-.74c-.78-.83-.29-2.2.26-4A14.82,14.82,0,0,1,35.6,136.52Z" transform="translate(-0.5)" style="fill:#d93d48;opacity:0.9"/><path d="M116.78,113a7,7,0,0,1-.58,1.75,7.76,7.76,0,0,1-1.16,1.75l5.82,3.49L122.6,117Z" transform="translate(-0.5)" style="fill:#d93d48;opacity:0.9"/><rect x="58.06" y="108.19" width="15.53" height="37.23" style="fill:#f9f9f9;opacity:0.9"/><path d="M74.08,108.19V144a156.84,156.84,0,0,1,4.24-24c1.05-4.08,2.24-8,3.53-11.82Z" transform="translate(-0.5)" style="fill:#d93d48;opacity:0.9"/><rect x="45.22" y="183.59" width="11.35" height="2.83" style="fill:#303030;opacity:0.9"/><polygon points="96.87 145.33 34.77 145.33 34.77 158.14 47.62 158.14 51.93 184.06 56.56 184.06 56.56 158.14 75.6 158.14 75.6 184.06 80.23 184.06 84.54 158.14 96.87 158.14 96.87 145.33" style="fill:#303030;opacity:0.9"/><rect x="76.1" y="183.59" width="11.35" height="2.83" transform="translate(163.04 370.01) rotate(180)" style="fill:#303030;opacity:0.9"/><path d="M63.46,46.08c-2.53.21-12.25,1.14-20,8.36A31.35,31.35,0,0,0,37,63.36a30.51,30.51,0,0,0-3.77,13.25A29.55,29.55,0,0,0,36.4,91.09a39.67,39.67,0,0,1,8.79-10.32,44.8,44.8,0,0,1,8.18-5.43c2.56,1.47,5.29,2.91,8.18,4.29a133.07,133.07,0,0,0,34.71,11A38.05,38.05,0,0,0,99,77.14a29.49,29.49,0,0,0-1.59-11.37C94.32,57.42,87.59,53,85.28,51.46A35.65,35.65,0,0,0,63.46,46.08Z" transform="translate(-0.5)" style="fill:#b77c40;opacity:0.9"/><circle cx="80.82" cy="92.05" r="2.99" style="fill:#303030;opacity:0.9"/><circle cx="56.64" cy="92.05" r="2.99" style="fill:#303030;opacity:0.9"/><path d="M58.56,108.19V144a156.84,156.84,0,0,0-4.24-24c-1-4.08-2.24-8-3.53-11.82Z" transform="translate(-0.5)" style="fill:#d93d48;opacity:0.9"/><ellipse cx="119.17" cy="112.89" rx="6.33" ry="4.99" style="fill:#ffebd4"/><ellipse cx="38.65" cy="141.89" rx="4.78" ry="3.77" style="fill:#ffebd4;opacity:0.9"/><path d="M101.55,160.52" transform="translate(-0.5)" style="fill:#d93d48;opacity:0.9"/><path d="M62,48.58c-4.08-2.15-5.78-3.53-5.11-4.12q1.78-1.56,25.54,4.12" transform="translate(-0.5)" style="fill:#b77c40;opacity:0.9"/></g><path d="M188.09,94.86c-5.56.34-10.55.62-15.08.73,0,3.86,0,7.66.06,11.51a37.28,37.28,0,0,1,10.82-1.53,15.84,15.84,0,0,1,10.72,3.63,12.54,12.54,0,0,1,4.53,10.15c0,8.9-5.5,13.37-16.38,13.37l-.34-1.24c5.78,0,9.92-1.31,12.47-3.8a12.77,12.77,0,0,0-1.13-17.63,15,15,0,0,0-9.87-3.23,35.08,35.08,0,0,0-10.82,1.59c0,6,0,12,.05,18.08,0,4-1.75,6-5.16,6a13.08,13.08,0,0,1-7.65-2.16,7.86,7.86,0,0,1-3.46-6.8c0-5.27,2.89-9.64,8.79-13.15a30.81,30.81,0,0,1,6.18-2.89c-.06-4-.06-7.88-.06-11.85-2.38.06-4.59.11-6.63.11-3.69,0-6.18-.05-7.43-.05V94.35c3.29.05,5.79.11,7.49.11,2.15,0,4.3-.06,6.57-.06V83.92H173V94.35q7.31-.25,15-.85ZM166.43,111.3q-8.33,4.85-8.33,12.24a6.55,6.55,0,0,0,3.17,5.9,11.65,11.65,0,0,0,6.69,1.81q3.91,0,3.92-4.76c-.06-5.9-.06-11.79-.06-17.69A26.2,26.2,0,0,0,166.43,111.3Zm36.45-9.47-1.07.85a70.92,70.92,0,0,0-10.89-11.34l1-.9A72.27,72.27,0,0,1,202.88,101.83Z" transform="translate(-0.5)" style="fill:#888"/><path d="M234.35,105.12H217.68V134.6h-1.24V85.9h17.91Zm-1.25-18H217.68V95H233.1Zm-15.42,16.78H233.1V96.22H217.68Zm30.5,8.28v14.68h-20V112.15Zm-1.25,1.19H229.42v12.3h17.51Zm-5.32-8.22V85.9H259.8v45.29c0,2-1,3.12-3,3.12-2.27,0-4.48-.06-6.69-.06l-.28-1.19c2.32,0,4.47.06,6.46.06a2.05,2.05,0,0,0,2.27-2.32V105.12Zm16.95-18H242.8V95h15.76ZM242.8,103.87h15.76V96.22H242.8Z" transform="translate(-0.5)" style="fill:#888"/><path d="M278.91,91a114.3,114.3,0,0,0-.9,14.74c0,6.57.9,12.18,2.83,16.77s4.31,6.86,7.26,6.86c1.64,0,3.28-1.7,4.87-5.1a31.75,31.75,0,0,0,2.38-7.37l1.31.23a32.56,32.56,0,0,1-2.73,8.22c-1.81,3.57-3.74,5.38-5.83,5.38-3.52,0-6.35-2.6-8.51-7.76-2-4.76-2.94-10.49-2.94-17.23a117.54,117.54,0,0,1,.9-14.91Zm42.57,31.34-1.36.06c-.68-13.15-3.74-23.13-9.29-30l1.13-.85Q320.47,102.31,321.48,122.29Z" transform="translate(-0.5)" style="fill:#888"/><path d="M357.71,83.63a85.38,85.38,0,0,0,25.57,21.09l-.62,1a83.51,83.51,0,0,1-25.4-21Q347.57,97,331.64,105.85l-.57-1a87.75,87.75,0,0,0,25.74-21.2Zm16.27,51h-1.24v-4.19H341.79v4.19h-1.25V113.34H374Zm-1.24-5.44V114.58H341.79v14.63Zm-1.14-26.76v1.19H342.92v-1.19Z" transform="translate(-0.5)" style="fill:#888"/><path d="M437.25,101a18,18,0,0,1,3.69,11.62,17.26,17.26,0,0,1-5.27,13.09c-3.52,3.29-8.56,5.33-15.08,6.07l-.46-1.25c6.3-.74,11.11-2.66,14.52-5.73a15.93,15.93,0,0,0,5-12.18c0-4.42-1.13-8-3.4-10.83-2.5-3.06-6-4.53-10.32-4.53-5,0-10.6,2.38-16.72,7.25-1,.79-2,1.65-3.06,2.55-.23,11.06-.34,19.67-.34,25.91h-1.31c0-6.75.12-15,.35-24.72a119.06,119.06,0,0,0-11.06,12l-1-.79a110.47,110.47,0,0,1,12.13-13.15c.06-3.29.17-6.75.29-10.38L395,96.73l-.11-1.25,10.43-.74.23-10.54h1.3c-.11,1.42-.17,4.88-.28,10.43l.85.91-1,2.72c-.12,2.38-.17,4.65-.17,6.91a8.36,8.36,0,0,1,1.07-.9c6.69-5.56,12.93-8.33,18.65-8.33A13.7,13.7,0,0,1,437.25,101Z" transform="translate(-0.5)" style="fill:#888"/><path d="M489.18,100.58l9.75-.45.06,1.25-9.81.45v1.36c0,5.73-.34,9.58-1,11.62-.85,2.61-2.55,3.91-5.16,3.91a29.44,29.44,0,0,1-5.84-.62l.06-1.25a25.26,25.26,0,0,0,5.78.63c2.38,0,3.91-1.87,4.54-5.56a67.42,67.42,0,0,0,.34-8.73v-1.3l-22.85,1L465,119.29c0,3.85,1.08,6.69,3.29,8.56,2,1.76,5.1,2.66,9.18,2.66a163.88,163.88,0,0,0,16.5-.73l.11,1.24a162.8,162.8,0,0,1-16.61.74c-4.59,0-8-1-10.15-2.78-2.43-2-3.62-5.27-3.62-9.69,0-3.4,0-8.9.11-16.38l-10.09.45-.06-1.19,10.15-.45.11-14.17h1.31l-.12,14.11,22.85-1c-.06-5-.17-9.92-.34-14.85l1.24-.06C489,90.66,489.13,95.59,489.18,100.58Z" transform="translate(-0.5)" style="fill:#888"/></svg>