<svg id="レイヤー_1" data-name="レイヤー 1" xmlns="http://www.w3.org/2000/svg" viewBox="0 0 200 159.08"><path d="M40.83,294.56a116.82,116.82,0,0,0-3.59,25.66c-.32,13.1-.08,19.48,0,22.4,0,.46-.12.67-.22.74-1,.63-6.64-5.53-10.74-12.46a54.38,54.38,0,0,1-3.18-6.24,149.65,149.65,0,0,1,17.7-30.1Z" transform="translate(-10.2 -235.92)" style="fill:#ff004f;fill-opacity:0.81"/><path d="M192.5,292.87a116.12,116.12,0,0,1,3.58,25.66c.33,13.1.08,19.47,0,22.4,0,.45.12.67.22.73,1,.6,6.17-5.19,10-11.32A59.39,59.39,0,0,0,210.2,323a114,114,0,0,0-17.7-30.09Z" transform="translate(-10.2 -235.92)" style="fill:#ff004f;fill-opacity:0.81"/><path d="M178.36,359.74A27.84,27.84,0,0,1,186,372.09c12.75-19.9,12.66-43.17,9.52-65.21-1.88-13.19-4.82-26.48-12.08-38.52a64,64,0,0,0-35.28-27.88c-23.08-7.34-50.07-1.57-71.23,8.63-2-7.62-12.2-13-22.32-13.18s-19.8,3.79-26.93,9.31A67.06,67.06,0,0,0,14.79,259c-1.53,2.07-4.06,4.59-4.47,7a8.79,8.79,0,0,0,.22,3.88,9.73,9.73,0,0,0,.8,2c.23.42,1.09,1.22,1.11,1.64-.27-6,6.18-10.79,12.5-14.3a79.79,79.79,0,0,1,23-9c8.35-1.68,17.55-1.51,25.27,1.46a158.6,158.6,0,0,0-16.44,18.71c-7.69,10.34-21,28.6-23.58,53.69a87.8,87.8,0,0,0,4.62,38.18l4.56-13.58c-.26,5.85-.42,11.8,1.72,17.42a21.78,21.78,0,0,0,14,13.06l5.37-14.94,0,12.68a4,4,0,0,0,.95,3.16,7,7,0,0,0,2.94,1.32c22.9,6.36,47.39,12.54,71.17,8.53a111.68,111.68,0,0,0,16.78-4.36c1.4-.47,2.8-1,4.19-1.46,1.1-.39,2.19-.79,3.28-1.2l3.09-1.17c.75-.29,10.07-4.4,12.2-7.39C181.19,369.89,179.82,364.56,178.36,359.74Z" transform="translate(-10.2 -235.92)" style="fill:#b67c40"/><path d="M90.05,263.67c.54.39-3.63,7.49-4.06,8.3q-2.28,4.27-4.87,8.41a146.64,146.64,0,0,1-11.63,16c-4.31,5.15-9.43,9.69-14,14.66-2.1,2.3-1.18,5.76-1.14,8.59,0,3.5.13,7,.29,10.49a151.68,151.68,0,0,0,2.11,20c.88,4.9,2.16,9.89,5.52,14,4.34,5.32,11.63,8.5,18.93,10.76,29.38,9.12,63.93,6.13,90.34-7.81a10.72,10.72,0,0,0,3.91-2.92,8.31,8.31,0,0,0,1.18-3.69q2-13.51,3.06-27.13c.24-3.29.42-6.69-1-9.76-2-4.41-7-7.38-11.66-10.13Q127.18,290,90.05,263.67Z" transform="translate(-10.2 -235.92)" style="fill:#ffead3"/><ellipse cx="144.67" cy="329.57" rx="8.35" ry="9.07" transform="translate(-46.95 -217.21) rotate(-6.57)" style="fill:#5e453a"/><line x1="143" y1="81.67" x2="139.17" y2="87.04" style="fill:none;stroke:#5e453a;stroke-miterlimit:10;stroke-width:0.992125984251969px"/><line x1="146.62" y1="86.73" x2="141.18" y2="90.47" style="fill:none;stroke:#5e453a;stroke-miterlimit:10;stroke-width:0.992125984251969px"/><line x1="137.81" y1="79.66" x2="136.05" y2="86.02" style="fill:none;stroke:#5e453a;stroke-miterlimit:10;stroke-width:0.992125984251969px"/><path d="M75.6,330.71a10.43,10.43,0,0,1,8-4.8,18.44,18.44,0,0,1,12.8,6.4" transform="translate(-10.2 -235.92)" style="fill:none;stroke:#5e453a;stroke-miterlimit:10;stroke-width:2.1259842519685px"/><line x1="64.28" y1="85.8" x2="67.94" y2="91.01" style="fill:none;stroke:#5e453a;stroke-miterlimit:10;stroke-width:0.992125984251969px"/><line x1="60.84" y1="90.71" x2="66.03" y2="94.34" style="fill:none;stroke:#5e453a;stroke-miterlimit:10;stroke-width:0.992125984251969px"/><line x1="69.24" y1="83.86" x2="70.93" y2="90.02" style="fill:none;stroke:#5e453a;stroke-miterlimit:10;stroke-width:0.992125984251969px"/><ellipse cx="60.12" cy="106.6" rx="8.7" ry="5.56" style="fill:#ffaba9;opacity:0.49"/><ellipse cx="152.34" cy="107" rx="8.7" ry="5.56" style="fill:#ffaba9;opacity:0.49"/><ellipse cx="156.32" cy="370.78" rx="8.7" ry="10.15" transform="translate(-239.52 19.97) rotate(-50.55)" style="fill:#ffead3"/><ellipse cx="80.17" cy="370.78" rx="10.15" ry="8.7" transform="translate(-227.54 -100.5) rotate(-39.45)" style="fill:#ffead3"/><path d="M77,285.1l-17-6a2.86,2.86,0,0,0-1.7,1.7,2.61,2.61,0,0,0,0,1.7,52,52,0,0,0,15.31,8.51" transform="translate(-10.2 -235.92)" style="fill:#de0006"/><ellipse cx="108" cy="155.58" rx="35.5" ry="3.5" style="opacity:0.2"/></svg>