<svg id="レイヤー_1" data-name="レイヤー 1" xmlns="http://www.w3.org/2000/svg" viewBox="0 0 18 18"><line x1="17.5" x2="17.5" y2="18" style="fill:none;stroke:#ededed;stroke-miterlimit:10;stroke-width:0.992125984251969px"/><line y1="7.5" x2="18" y2="7.5" style="fill:none;stroke:#ededed;stroke-miterlimit:10;stroke-width:0.992125984251969px"/><rect x="8" y="1" width="1" height="1" style="fill:#ededed"/><rect x="8" y="3" width="1" height="1" style="fill:#ededed"/><rect x="8" y="5" width="1" height="1" style="fill:#ededed"/><rect x="8" y="9" width="1" height="1" style="fill:#ededed"/><rect x="8" y="11" width="1" height="1" style="fill:#ededed"/><rect x="8" y="13" width="1" height="1" style="fill:#ededed"/><rect x="8" y="15" width="1" height="1" style="fill:#ededed"/><rect y="17" width="1" height="1" style="fill:#ededed"/><rect x="2" y="17" width="1" height="1" style="fill:#ededed"/><rect x="4" y="17" width="1" height="1" style="fill:#ededed"/><rect x="6" y="17" width="1" height="1" style="fill:#ededed"/><rect x="8" y="17" width="1" height="1" style="fill:#ededed"/><rect x="10" y="17" width="1" height="1" style="fill:#ededed"/><rect x="12" y="17" width="1" height="1" style="fill:#ededed"/><rect x="14" y="17" width="1" height="1" style="fill:#ededed"/><rect x="16" y="17" width="1" height="1" style="fill:#ededed"/></svg>